# xmcd CD database file
#
# Track frame offsets:
#	150
#	14740
#	29977
#	46267
#	58249
#	73491
#	88985
#	100982
#	116108
#	127330
#	141624
#
# Disc length: 2059 seconds
#
# Revision: 0
# Processed by: cddbd v1.5.2PL0 Copyright (c) Steve Scherf et al.
# Submitted via: CDex 1.70beta2
#
DISCID=c108090b
DTITLE=Tex Beneke - Beneke on Broadway
DYEAR=1900
DGENRE=Jazz
TTITLE0=The more I See You
TTITLE1=Hello Dolly
TTITLE2=I left my heart in San Francisco
TTITLE3=My Favourite Things
TTITLE4=The Lemon Tree
TTITLE5=I Wish You Love
TTITLE6=On A Clear Day
TTITLE7=Walk Right In
TTITLE8=Stranger On The Shore
TTITLE9=I've Grown Accustomed To Her Face
TTITLE10=Tonight
EXTD=
EXTT0=
EXTT1=
EXTT2=
EXTT3=
EXTT4=
EXTT5=
EXTT6=
EXTT7=
EXTT8=
EXTT9=
EXTT10=
PLAYORDER=
